<?xml version="1.0" standalone="no"?>
<!DOCTYPE svg PUBLIC "-//W3C//DTD SVG 20010904//EN"
 "http://www.w3.org/TR/2001/REC-SVG-20010904/DTD/svg10.dtd">
<svg version="1.0" xmlns="http://www.w3.org/2000/svg"
 width="284.000000pt" height="276.000000pt" viewBox="0 0 284.000000 276.000000"
 preserveAspectRatio="xMidYMid meet">

<g transform="translate(0.000000,276.000000) scale(0.100000,-0.100000)"
fill="#000000" stroke="none">
<path d="M1177 2660 c-292 -63 -492 -168 -695 -364 -178 -172 -266 -326 -328
-572 -33 -133 -28 -181 19 -189 18 -3 188 -6 378 -7 l345 -3 -4 55 c-2 30 -8
59 -12 63 -4 5 -143 11 -309 14 -230 5 -301 9 -301 18 0 26 43 153 75 220 90
188 252 357 475 495 183 113 337 152 600 153 278 1 478 -60 690 -212 153 -109
264 -234 349 -393 43 -78 91 -212 91 -250 l0 -23 -168 -1 c-93 -1 -226 -5
-296 -9 l-127 -7 -24 -48 c-14 -27 -29 -51 -35 -55 -5 -3 -10 -10 -10 -15 0
-8 524 -4 708 6 l103 6 -6 46 c-27 204 -91 383 -186 524 -159 234 -450 445
-713 518 -194 54 -450 66 -619 30z"/>
<path d="M1102 2393 c-30 -12 -54 -100 -34 -129 26 -40 93 -44 121 -8 55 69
-8 169 -87 137z"/>
<path d="M1690 2383 c-53 -20 -65 -74 -25 -117 39 -42 88 -30 109 27 6 19 -20
87 -34 87 -5 0 -14 2 -22 4 -7 3 -20 2 -28 -1z"/>
<path d="M1373 2223 c-22 -4 -23 -9 -23 -101 0 -53 -4 -102 -8 -108 -4 -6 -25
-14 -46 -17 -59 -9 -136 -51 -185 -99 -84 -83 -120 -195 -101 -314 15 -93 42
-150 98 -207 57 -59 91 -77 239 -128 144 -50 201 -78 251 -126 88 -84 73 -215
-30 -269 -56 -29 -58 -26 -58 115 0 79 -4 132 -10 136 -6 4 -39 15 -75 25
l-63 18 -6 -24 c-4 -13 -4 -82 -1 -154 3 -73 2 -130 -3 -130 -5 0 -28 14 -51
31 -41 29 -91 112 -91 150 0 36 -26 43 -113 30 -126 -19 -120 -15 -115 -76 12
-148 156 -301 315 -335 l51 -11 4 -104 c2 -57 7 -107 11 -111 12 -12 101 -16
130 -5 l27 11 -6 108 -7 109 49 7 c68 9 161 56 212 107 23 23 57 72 74 107 44
89 51 208 17 297 -33 87 -109 160 -230 219 -52 25 -100 46 -107 46 -9 0 -12
47 -12 185 0 102 3 185 8 185 4 0 22 -9 40 -20 37 -23 69 -71 78 -117 5 -25
11 -33 28 -32 35 0 161 25 175 33 36 23 -22 179 -91 247 -49 48 -134 90 -193
97 l-45 5 0 107 0 108 -31 6 c-33 6 -69 6 -106 -1z m-23 -584 c0 -89 -4 -149
-10 -149 -16 0 -80 61 -96 91 -17 34 -18 99 -2 134 13 29 86 87 100 79 4 -3 8
-72 8 -155z"/>
<path d="M878 2204 c-24 -13 -28 -21 -28 -60 0 -101 108 -130 146 -39 16 40 7
75 -28 99 -28 20 -55 20 -90 0z"/>
<path d="M1860 2200 c-29 -29 -27 -94 5 -125 32 -33 68 -32 94 1 31 40 24 112
-13 136 -21 14 -66 8 -86 -12z"/>
<path d="M620 1968 c-29 -31 -28 -101 2 -122 58 -41 138 -1 138 69 0 48 -29
75 -80 75 -27 0 -45 -6 -60 -22z"/>
<path d="M2125 1979 c-70 -39 -56 -130 23 -154 31 -9 82 42 82 83 0 55 -60 96
-105 71z"/>
<path d="M1680 1476 c0 -2 9 -6 20 -9 11 -3 20 -1 20 4 0 5 -9 9 -20 9 -11 0
-20 -2 -20 -4z"/>
<path d="M30 1417 c-22 -11 -25 -19 -25 -65 1 -71 23 -92 180 -168 154 -75
237 -99 316 -90 63 6 174 43 264 88 93 47 237 141 226 147 -6 4 -20 28 -31 54
l-21 47 -442 0 c-339 0 -448 -3 -467 -13z"/>
<path d="M1885 1335 c124 -125 273 -208 421 -234 88 -16 208 9 327 70 141 72
207 134 207 195 0 62 30 59 -532 59 l-513 0 90 -90z"/>
<path d="M1020 1210 c-238 -130 -462 -219 -550 -220 -54 0 -150 32 -272 92
-126 62 -127 62 -148 43 -32 -29 -50 -81 -50 -142 0 -49 4 -59 34 -89 l34 -34
411 0 412 0 -13 23 c-6 12 -12 59 -12 104 -1 67 3 86 20 110 30 41 115 71 220
80 l88 6 -44 19 c-25 11 -46 23 -48 29 -6 15 -24 10 -82 -21z"/>
<path d="M2672 1094 c-244 -123 -337 -126 -589 -15 -39 17 -75 31 -80 31 -4 0
-6 -26 -3 -57 5 -55 -2 -131 -15 -173 -6 -20 1 -20 387 -20 443 0 424 -3 454
76 15 38 15 53 6 95 -7 27 -22 65 -34 83 l-23 32 -103 -52z"/>
<path d="M183 763 c-50 -5 -51 -8 -32 -139 29 -210 162 -399 341 -487 148 -72
136 -71 873 -73 363 0 697 3 742 8 181 19 359 127 462 281 71 105 121 279 106
368 -6 35 -8 37 -58 43 -29 3 -194 6 -367 6 l-316 0 -16 -28 c-9 -15 -35 -46
-59 -69 l-42 -43 358 7 358 6 -6 -50 c-20 -171 -186 -344 -367 -383 -40 -8
-249 -10 -775 -8 -813 4 -755 -2 -887 85 -85 56 -160 153 -188 242 -11 35 -20
74 -20 88 l0 24 379 -3 380 -3 -35 29 c-20 16 -46 46 -60 67 l-24 39 -353 -2
c-193 -1 -371 -3 -394 -5z"/>
<path d="M2362 578 c-18 -18 -15 -45 8 -68 27 -27 58 -25 72 5 22 48 -43 100
-80 63z"/>
<path d="M380 555 c0 -31 29 -72 62 -88 31 -15 34 -15 46 0 6 9 12 33 12 54 0
41 -13 49 -82 49 -28 0 -38 -4 -38 -15z"/>
<path d="M2167 543 c-4 -3 -7 -23 -7 -44 0 -44 21 -62 58 -48 18 7 22 16 22
48 0 26 -5 41 -16 45 -21 8 -49 8 -57 -1z"/>
<path d="M567 513 c-8 -16 -17 -41 -21 -56 -6 -27 -5 -28 26 -25 28 3 35 8 46
42 9 29 9 42 1 52 -18 22 -37 17 -52 -13z"/>
<path d="M2285 478 c-6 -26 -3 -35 15 -50 33 -26 54 -19 58 19 3 27 -2 34 -27
47 -39 21 -38 21 -46 -16z"/>
</g>
</svg>
